<svg width="651" height="445" viewBox="0 0 651 445" fill="none" xmlns="http://www.w3.org/2000/svg">
<path d="M120.65 143.092H119.327V105.626C119.327 102.779 118.785 99.959 117.731 97.3281C116.677 94.6973 115.133 92.3069 113.185 90.2933C111.238 88.2798 108.927 86.6826 106.382 85.5929C103.838 84.5031 101.112 83.9423 98.3577 83.9423H21.5972C16.0357 83.9423 10.702 86.2268 6.76944 90.2933C2.83687 94.3598 0.627576 99.8752 0.627563 105.626V311.164C0.62756 314.012 1.16995 316.831 2.22377 319.462C3.27759 322.093 4.82219 324.484 6.76939 326.497C8.7166 328.511 11.0283 330.108 13.5724 331.198C16.1166 332.287 18.8434 332.848 21.5971 332.848H98.3577C103.919 332.848 109.253 330.564 113.185 326.497C117.118 322.431 119.327 316.915 119.327 311.164V169.76H120.65L120.65 143.092Z" fill="#3F3D56"/>
<path d="M99.2038 89.5837H89.184C89.6447 90.7519 89.8206 92.0193 89.6961 93.2743C89.5716 94.5293 89.1506 95.7334 88.4701 96.7806C87.7895 97.8277 86.8704 98.6857 85.7937 99.2789C84.7169 99.8722 83.5156 100.183 82.2956 100.183H38.3205C37.1004 100.183 35.8991 99.8722 34.8224 99.2789C33.7457 98.6857 32.8265 97.8277 32.146 96.7806C31.4655 95.7334 31.0444 94.5293 30.9199 93.2743C30.7954 92.0193 30.9713 90.7518 31.4321 89.5836H22.0736C17.9203 89.5836 13.9372 91.2897 11.0004 94.3265C8.06358 97.3634 6.4137 101.482 6.4137 105.777V311.013C6.41369 313.14 6.81875 315.246 7.60573 317.21C8.39271 319.175 9.5462 320.96 11.0003 322.464C12.4545 323.968 14.1808 325.16 16.0808 325.974C17.9807 326.788 20.0171 327.207 22.0735 327.207H99.2038C101.26 327.207 103.297 326.788 105.197 325.974C107.096 325.16 108.823 323.968 110.277 322.464C111.731 320.96 112.885 319.175 113.672 317.21C114.459 315.246 114.864 313.14 114.864 311.013V105.777C114.864 103.65 114.459 101.545 113.672 99.5801C112.885 97.6154 111.731 95.8303 110.277 94.3266C108.823 92.8229 107.096 91.6301 105.197 90.8163C103.297 90.0025 101.26 89.5837 99.2038 89.5837Z" fill="white"/>
<path d="M97.0566 175.911H27.6359V224.341H97.0566V175.911Z" fill="white"/>
<path d="M97.2959 224.589H27.3965V175.664H97.2959V224.589ZM27.8752 224.094H96.8172V176.159H27.8752V224.094Z" fill="#3F3D56"/>
<path d="M33.5024 213.725H91.19V179.753H33.5024V213.725Z" fill="#E6E6E6"/>
<path d="M50.4729 200.875C53.6661 200.875 56.2547 198.198 56.2547 194.896C56.2547 191.594 53.6661 188.918 50.4729 188.918C47.2797 188.918 44.691 191.594 44.691 194.896C44.691 198.198 47.2797 200.875 50.4729 200.875Z" fill="#6C63FF"/>
<path d="M68.6039 213.321H40.2401C40.2046 213.321 40.1691 213.318 40.1342 213.312L53.5489 189.284C53.6308 189.134 53.7496 189.01 53.8932 188.923C54.0369 188.837 54.2002 188.791 54.3664 188.791C54.5327 188.791 54.696 188.837 54.8396 188.923C54.9832 189.01 55.1021 189.134 55.1839 189.284L64.1869 205.409L64.6182 206.18L68.6039 213.321Z" fill="#6C63FF"/>
<path opacity="0.2" d="M68.6038 213.321H58.9198L63.6735 206.18L64.016 205.666L64.1873 205.408L64.6181 206.18L68.6038 213.321Z" fill="black"/>
<path d="M84.3967 213.321H59.8643L64.6182 206.18L64.9603 205.666L71.1551 196.36C71.2646 196.218 71.4018 196.102 71.5578 196.018C71.7138 195.934 71.8851 195.885 72.0606 195.874C72.2361 195.864 72.4117 195.891 72.5763 195.955C72.7408 196.019 72.8905 196.118 73.0157 196.245C73.0477 196.282 73.0775 196.32 73.1049 196.36L84.3967 213.321Z" fill="#3F3D56"/>
<path d="M265.444 333.034H79.38C74.9699 333.029 70.7419 331.215 67.6235 327.99C64.5051 324.766 62.751 320.394 62.746 315.833V36.8055C62.7509 32.2452 64.5051 27.8732 67.6235 24.6485C70.7419 21.4239 74.9699 19.61 79.38 19.6049H265.444C269.855 19.61 274.083 21.4239 277.201 24.6485C280.319 27.8732 282.073 32.2452 282.078 36.8055V315.833C282.073 320.394 280.319 324.766 277.201 327.99C274.083 331.215 269.855 333.029 265.444 333.034Z" fill="#3F3D56"/>
<path d="M265.772 322.06H79.0525C77.693 322.058 76.3897 321.499 75.4284 320.505C74.4671 319.511 73.9264 318.163 73.9249 316.757V35.8816C73.9264 34.4758 74.4671 33.1281 75.4284 32.1341C76.3897 31.14 77.693 30.5809 79.0525 30.5793H265.772C267.131 30.5809 268.435 31.14 269.396 32.1341C270.357 33.1281 270.898 34.4758 270.9 35.8816V316.757C270.898 318.163 270.357 319.511 269.396 320.505C268.435 321.499 267.131 322.058 265.772 322.06Z" fill="white"/>
<path d="M171.705 26.3359C172.486 26.3359 173.12 25.6807 173.12 24.8726C173.12 24.0645 172.486 23.4094 171.705 23.4094C170.923 23.4094 170.29 24.0645 170.29 24.8726C170.29 25.6807 170.923 26.3359 171.705 26.3359Z" fill="white"/>
<path d="M250.229 110.763H103.316V213.254H250.229V110.763Z" fill="white"/>
<path d="M250.736 213.778H102.81V110.239H250.736V213.778ZM103.823 212.73H249.722V111.287H103.823V212.73Z" fill="#3F3D56"/>
<path d="M115.732 190.787H237.814V118.894H115.732V190.787Z" fill="#E6E6E6"/>
<path d="M151.645 163.593C158.403 163.593 163.881 157.928 163.881 150.94C163.881 143.952 158.403 138.288 151.645 138.288C144.888 138.288 139.41 143.952 139.41 150.94C139.41 157.928 144.888 163.593 151.645 163.593Z" fill="#6C63FF"/>
<path d="M190.016 189.931H129.99C129.915 189.932 129.84 189.926 129.766 189.913L158.155 139.063C158.328 138.747 158.58 138.483 158.884 138.3C159.188 138.117 159.533 138.02 159.885 138.02C160.237 138.02 160.583 138.117 160.887 138.3C161.191 138.483 161.442 138.747 161.615 139.063L180.668 173.187L181.581 174.82L190.016 189.931Z" fill="#6C63FF"/>
<path opacity="0.2" d="M190.016 189.931H169.522L179.582 174.82L180.306 173.732L180.668 173.188L181.58 174.82L190.016 189.931Z" fill="black"/>
<path d="M223.437 189.931H171.52L181.581 174.82L182.305 173.731L195.414 154.039C195.646 153.738 195.937 153.491 196.267 153.314C196.597 153.136 196.96 153.033 197.331 153.01C197.702 152.987 198.074 153.045 198.422 153.18C198.77 153.316 199.087 153.525 199.352 153.795C199.42 153.872 199.483 153.954 199.541 154.039L223.437 189.931Z" fill="#3F3D56"/>
<path d="M680.827 444.36H110.136C105.061 444.36 100.193 442.344 96.6047 438.756C93.0161 435.167 91 430.3 91 425.225C297.876 401.182 500.863 401.182 699.963 425.225C699.963 427.738 699.468 430.226 698.506 432.548C697.545 434.869 696.135 436.979 694.358 438.756C692.581 440.533 690.472 441.942 688.15 442.904C685.829 443.866 683.34 444.361 680.827 444.36Z" fill="#2F2E41"/>
<path d="M699.963 426.35L91 425.225L161.577 306.471L161.914 305.909V44.1896C161.914 41.0129 162.54 37.8673 163.755 34.9323C164.971 31.9974 166.752 29.3307 168.999 27.0844C171.245 24.8381 173.912 23.0563 176.847 21.8408C179.782 20.6252 182.927 19.9997 186.104 20H601.482C604.659 19.9997 607.804 20.6252 610.739 21.8408C613.674 23.0563 616.341 24.8381 618.587 27.0844C620.834 29.3307 622.615 31.9974 623.831 34.9323C625.046 37.8673 625.672 41.0129 625.672 44.1896V307.71L699.963 426.35Z" fill="#3F3D56"/>
<path d="M185.552 36.8844C183.463 36.8867 181.461 37.7176 179.984 39.1948C178.506 40.672 177.675 42.6747 177.673 44.7638V283.396C177.676 285.485 178.506 287.488 179.984 288.965C181.461 290.442 183.463 291.273 185.552 291.276H605.41C607.499 291.273 609.502 290.442 610.979 288.965C612.456 287.488 613.287 285.485 613.29 283.396V44.7638C613.287 42.6748 612.457 40.672 610.979 39.1949C609.502 37.7177 607.499 36.8868 605.41 36.8844H185.552Z" fill="white"/>
<path d="M187.312 322.793C186.666 322.794 186.035 322.98 185.491 323.328C184.947 323.676 184.515 324.173 184.244 324.759L162.497 372.035C162.26 372.549 162.157 373.115 162.196 373.68C162.235 374.245 162.416 374.791 162.721 375.268C163.027 375.745 163.447 376.137 163.944 376.409C164.441 376.681 164.998 376.823 165.564 376.823H622.889C623.465 376.823 624.031 376.676 624.534 376.396C625.037 376.115 625.459 375.711 625.762 375.221C626.064 374.732 626.237 374.173 626.263 373.598C626.288 373.023 626.167 372.451 625.909 371.936L602.271 324.66C601.992 324.098 601.562 323.625 601.028 323.295C600.494 322.965 599.879 322.791 599.251 322.793H187.312Z" fill="#2F2E41"/>
<path d="M393.793 32.9447C396.591 32.9447 398.858 30.6769 398.858 27.8794C398.858 25.0819 396.591 22.8141 393.793 22.8141C390.996 22.8141 388.728 25.0819 388.728 27.8794C388.728 30.6769 390.996 32.9447 393.793 32.9447Z" fill="white"/>
<path d="M348.842 385.828C348.099 385.829 347.378 386.074 346.789 386.526C346.2 386.977 345.775 387.61 345.581 388.327L340.126 408.588C339.991 409.088 339.974 409.613 340.074 410.122C340.175 410.63 340.391 411.109 340.706 411.52C341.022 411.932 341.427 412.265 341.892 412.494C342.357 412.724 342.868 412.843 343.387 412.843H447.128C447.667 412.843 448.197 412.714 448.676 412.468C449.154 412.221 449.567 411.863 449.879 411.425C450.191 410.986 450.394 410.479 450.47 409.946C450.547 409.413 450.495 408.87 450.318 408.361L443.305 388.1C443.075 387.437 442.644 386.862 442.072 386.454C441.501 386.047 440.816 385.828 440.114 385.828H348.842Z" fill="#2F2E41"/>
<path d="M625.672 301.969V306.471H161.577L161.926 305.909V301.969H625.672Z" fill="#2F2E41"/>
<path d="M237.131 86.4321C235.488 86.4575 233.922 87.1335 232.776 88.3117C231.631 89.49 231 91.0745 231.021 92.7176V235.188C231 236.831 231.631 238.415 232.776 239.594C233.922 240.772 235.488 241.448 237.131 241.473H553.832C555.475 241.448 557.041 240.772 558.187 239.594C559.332 238.415 559.963 236.831 559.942 235.188V92.7176C559.963 91.0745 559.332 89.49 558.187 88.3117C557.041 87.1335 555.475 86.4575 553.832 86.4321H237.131Z" fill="#E6E6E6"/>
<path d="M419.069 241.728H534.355C535.089 241.728 535.807 241.51 536.417 241.102C537.027 240.695 537.503 240.115 537.784 239.437C538.064 238.759 538.138 238.013 537.995 237.293C537.852 236.573 537.498 235.912 536.979 235.393L463.195 161.608C462.498 160.913 461.554 160.523 460.57 160.523C459.587 160.523 458.643 160.913 457.946 161.608L439.598 179.956C438.875 180.679 438.017 181.253 437.073 181.644C436.128 182.035 435.116 182.236 434.094 182.236C433.072 182.236 432.059 182.035 431.115 181.644C430.171 181.253 429.312 180.679 428.59 179.956L371.12 122.486C370.423 121.792 369.48 121.401 368.496 121.401C367.512 121.401 366.568 121.792 365.871 122.486L253.474 234.883C252.955 235.403 252.602 236.064 252.459 236.784C252.316 237.504 252.389 238.25 252.67 238.928C252.951 239.606 253.427 240.185 254.037 240.593C254.647 241.001 255.365 241.219 256.099 241.219H419.216L419.069 241.728Z" fill="#6C63FF"/>
<path d="M345.5 171C359.031 171 370 159.807 370 146C370 132.193 359.031 121 345.5 121C331.969 121 321 132.193 321 146C321 159.807 331.969 171 345.5 171Z" fill="#6C63FF"/>
<path d="M244.731 138.006C244.461 138.006 244.202 137.898 244.011 137.708C243.82 137.517 243.713 137.258 243.713 136.987V68.7592C243.713 68.4891 243.82 68.2301 244.011 68.0391C244.202 67.8482 244.461 67.7409 244.731 67.7408H323.143C323.277 67.7404 323.41 67.7665 323.534 67.8174C323.658 67.8684 323.77 67.9434 323.865 68.038C323.96 68.1326 324.035 68.245 324.087 68.3687C324.138 68.4925 324.165 68.6252 324.165 68.7592C324.165 68.8932 324.138 69.0259 324.087 69.1496C324.035 69.2734 323.96 69.3858 323.865 69.4804C323.77 69.575 323.658 69.6499 323.534 69.7009C323.41 69.7519 323.277 69.778 323.143 69.7775H245.75V136.988C245.75 137.258 245.643 137.517 245.452 137.708C245.261 137.899 245.002 138.006 244.731 138.006Z" fill="#3F3D56"/>
<path d="M546.158 139.024C546.024 139.024 545.892 138.998 545.768 138.947C545.645 138.896 545.532 138.821 545.438 138.726C545.343 138.631 545.268 138.519 545.217 138.396C545.166 138.272 545.14 138.14 545.14 138.006V70.7958H467.746C467.476 70.7958 467.217 70.6885 467.026 70.4976C466.835 70.3066 466.728 70.0475 466.728 69.7775C466.728 69.5074 466.835 69.2484 467.026 69.0574C467.217 68.8664 467.476 68.7592 467.746 68.7592H546.158C546.292 68.7591 546.424 68.7854 546.548 68.8366C546.671 68.8877 546.784 68.9628 546.878 69.0573C546.973 69.1519 547.048 69.2642 547.099 69.3877C547.15 69.5113 547.176 69.6437 547.176 69.7775V138.006C547.176 138.14 547.15 138.272 547.099 138.396C547.048 138.519 546.973 138.631 546.878 138.726C546.784 138.821 546.671 138.896 546.548 138.947C546.424 138.998 546.292 139.024 546.158 139.024Z" fill="#3F3D56"/>
<path d="M323.143 259.187H244.731C244.598 259.188 244.465 259.161 244.342 259.11C244.218 259.059 244.106 258.984 244.011 258.889C243.917 258.795 243.842 258.682 243.791 258.559C243.739 258.435 243.713 258.303 243.713 258.169V189.941C243.713 189.807 243.739 189.674 243.79 189.55C243.841 189.426 243.916 189.314 244.01 189.219C244.105 189.124 244.217 189.049 244.341 188.997C244.465 188.946 244.597 188.919 244.731 188.919C244.865 188.919 244.998 188.946 245.122 188.997C245.246 189.049 245.358 189.124 245.453 189.219C245.547 189.314 245.622 189.426 245.673 189.55C245.724 189.674 245.75 189.807 245.75 189.941V257.151H323.143C323.277 257.15 323.41 257.176 323.534 257.227C323.658 257.278 323.77 257.353 323.865 257.448C323.96 257.543 324.035 257.655 324.087 257.779C324.138 257.902 324.165 258.035 324.165 258.169C324.165 258.303 324.138 258.436 324.087 258.56C324.035 258.683 323.96 258.796 323.865 258.89C323.77 258.985 323.658 259.06 323.534 259.111C323.41 259.162 323.277 259.188 323.143 259.187Z" fill="#3F3D56"/>
<path d="M546.158 260.206H467.746C467.476 260.206 467.217 260.099 467.026 259.908C466.835 259.717 466.728 259.458 466.728 259.187C466.728 258.917 466.835 258.658 467.026 258.467C467.217 258.276 467.476 258.169 467.746 258.169H545.14V190.959C545.14 190.689 545.247 190.43 545.438 190.239C545.629 190.048 545.888 189.941 546.158 189.941C546.428 189.941 546.687 190.048 546.878 190.239C547.069 190.43 547.176 190.689 547.176 190.959V259.187C547.176 259.321 547.15 259.454 547.099 259.577C547.048 259.701 546.973 259.813 546.878 259.908C546.784 260.002 546.671 260.077 546.548 260.128C546.424 260.18 546.292 260.206 546.158 260.206Z" fill="#3F3D56"/>
<g clip-path="url(#clip0)">
<path opacity="0.4" d="M504.545 345.248C515.576 345.248 524.519 336.074 524.519 324.756C524.519 313.438 515.576 304.263 504.545 304.263C493.513 304.263 484.571 313.438 484.571 324.756C484.571 336.074 493.513 345.248 504.545 345.248Z" fill="#6C63FF"/>
<path opacity="0.4" d="M467.578 348.919C475.316 348.919 481.59 342.483 481.59 334.543C481.59 326.604 475.316 320.168 467.578 320.168C459.839 320.168 453.566 326.604 453.566 334.543C453.566 342.483 459.839 348.919 467.578 348.919Z" fill="#6C63FF"/>
<path d="M444.776 208.55C441.994 208.55 439.275 207.703 436.963 206.118C434.65 204.533 432.848 202.279 431.783 199.643C430.719 197.007 430.441 194.106 430.983 191.307C431.526 188.508 432.865 185.938 434.832 183.92C436.798 181.902 439.304 180.528 442.032 179.971C444.76 179.415 447.588 179.7 450.157 180.792C452.727 181.884 454.923 183.733 456.468 186.106C458.014 188.479 458.838 191.268 458.838 194.122C458.834 197.947 457.351 201.614 454.715 204.319C452.078 207.024 448.504 208.545 444.776 208.55ZM444.776 181.006C442.247 181.006 439.775 181.775 437.673 183.216C435.571 184.657 433.932 186.706 432.964 189.102C431.997 191.499 431.744 194.136 432.237 196.681C432.73 199.225 433.948 201.562 435.736 203.396C437.524 205.231 439.802 206.48 442.282 206.986C444.761 207.492 447.332 207.232 449.668 206.24C452.004 205.247 454.001 203.566 455.405 201.409C456.81 199.252 457.56 196.716 457.56 194.122C457.556 190.644 456.208 187.31 453.811 184.852C451.415 182.393 448.165 181.009 444.776 181.006Z" fill="#3F3D56"/>
<path d="M203.792 167.234C201.01 167.234 198.292 166.387 195.979 164.802C193.666 163.217 191.864 160.963 190.8 158.327C189.735 155.691 189.457 152.79 189.999 149.991C190.542 147.192 191.881 144.622 193.848 142.604C195.815 140.586 198.32 139.212 201.048 138.655C203.776 138.099 206.604 138.384 209.173 139.476C211.743 140.568 213.939 142.418 215.485 144.79C217.03 147.163 217.855 149.952 217.855 152.806C217.85 156.631 216.367 160.298 213.731 163.003C211.095 165.708 207.52 167.229 203.792 167.234ZM203.792 139.69C201.263 139.69 198.792 140.459 196.689 141.9C194.587 143.341 192.948 145.39 191.981 147.787C191.013 150.183 190.76 152.82 191.253 155.365C191.746 157.909 192.964 160.246 194.752 162.08C196.54 163.915 198.818 165.164 201.298 165.67C203.778 166.176 206.348 165.916 208.684 164.924C211.02 163.931 213.017 162.25 214.422 160.093C215.826 157.936 216.576 155.4 216.576 152.806C216.572 149.328 215.224 145.995 212.828 143.536C210.431 141.077 207.181 139.694 203.792 139.69Z" fill="#3F3D56"/>
<path d="M148.18 396.111C145.399 396.111 142.68 395.265 140.367 393.679C138.055 392.094 136.252 389.841 135.188 387.204C134.124 384.568 133.845 381.667 134.388 378.868C134.93 376.07 136.27 373.499 138.236 371.481C140.203 369.463 142.709 368.089 145.437 367.533C148.165 366.976 150.992 367.262 153.562 368.354C156.131 369.446 158.328 371.295 159.873 373.667C161.418 376.04 162.243 378.83 162.243 381.683C162.239 385.508 160.756 389.176 158.119 391.88C155.483 394.585 151.909 396.107 148.18 396.111ZM148.18 368.567C145.652 368.567 143.18 369.336 141.078 370.777C138.975 372.219 137.337 374.267 136.369 376.664C135.401 379.06 135.148 381.698 135.642 384.242C136.135 386.786 137.352 389.123 139.14 390.958C140.928 392.792 143.206 394.041 145.686 394.547C148.166 395.053 150.737 394.794 153.073 393.801C155.409 392.808 157.405 391.127 158.81 388.97C160.215 386.813 160.965 384.277 160.965 381.683C160.961 378.206 159.613 374.872 157.216 372.413C154.819 369.954 151.57 368.571 148.18 368.567Z" fill="#3F3D56"/>
<path d="M277.499 161.434C285.482 152.238 287.572 140.78 282.168 135.842C276.763 130.904 265.91 134.355 257.928 143.552C249.945 152.748 247.854 164.206 253.259 169.144C258.663 174.082 269.516 170.631 277.499 161.434Z" fill="#2F2E41"/>
<path d="M308.943 252.176C340.362 252.176 365.833 226.044 365.833 193.809C365.833 161.574 340.362 135.442 308.943 135.442C277.523 135.442 252.053 161.574 252.053 193.809C252.053 226.044 277.523 252.176 308.943 252.176Z" fill="#2F2E41"/>
<path d="M142.691 168.085L89.8126 172.524C87.7315 172.699 85.78 173.631 84.3105 175.153C82.8409 176.675 81.9503 178.685 81.7994 180.822L79.8249 208.776C79.738 210.007 79.8992 211.242 80.2984 212.406C80.6976 213.569 81.3262 214.636 82.1451 215.539C82.9639 216.442 83.9554 217.162 85.0577 217.655C86.1599 218.148 87.3493 218.402 88.5516 218.402H112.384V219.713H121.972V218.402H127.086V219.713H136.674V218.402H141.785C144.028 218.402 146.186 217.518 147.812 215.933C149.438 214.348 150.409 212.183 150.524 209.885L152.143 177.492C152.207 176.214 152.004 174.937 151.547 173.747C151.091 172.556 150.392 171.479 149.497 170.589C148.602 169.698 147.532 169.014 146.358 168.582C145.184 168.15 143.934 167.981 142.691 168.085Z" fill="#2F2E41"/>
<path d="M176.306 256.439L101.518 220.369L88.0941 242.011C88.0941 242.011 126.982 267.481 129.004 269.555C131.88 272.506 162.882 293.164 175.027 289.885C187.172 286.606 181.419 259.718 176.306 256.439Z" fill="#9F616A"/>
<path d="M227.443 421.703L217.855 444H317.112L309.901 420.391L227.443 421.703Z" fill="#2F2E41"/>
<path d="M288.168 240.699C288.168 240.699 292.003 262.341 288.168 264.964C284.333 267.587 313.737 299.722 313.737 299.722L325.882 288.573L329.717 262.997C329.717 262.997 318.211 246.602 323.325 232.174C328.439 217.746 288.168 240.699 288.168 240.699Z" fill="#9F616A"/>
<path d="M299.674 247.257C322.268 247.257 340.584 228.466 340.584 205.286C340.584 182.105 322.268 163.314 299.674 163.314C277.08 163.314 258.764 182.105 258.764 205.286C258.764 228.466 277.08 247.257 299.674 247.257Z" fill="#9F616A"/>
<path d="M310.541 284.639C310.541 284.639 294.56 259.718 285.611 257.75C276.662 255.783 268.352 257.095 263.239 257.75C258.125 258.406 240.866 251.848 230.639 256.439C220.411 261.029 230.639 314.806 230.639 314.806C230.639 314.806 219.133 383.666 224.247 401.372C229.36 419.079 225.525 422.358 222.968 424.326C220.411 426.293 281.137 444 281.137 444H338.666C338.666 444 338.666 424.982 344.419 420.391C350.172 415.8 349.533 318.741 349.533 318.741L368.709 280.704C368.709 280.704 365.513 266.276 352.09 265.62C338.666 264.964 326.684 257.734 326.684 257.734L317.572 284.639H310.541Z" fill="#6C63FF"/>
<path d="M236.392 259.718L230.639 256.439C230.639 256.439 219.772 257.095 217.855 256.439C215.937 255.783 191.647 247.913 182.059 252.504C172.47 257.095 166.078 251.192 166.078 251.192C166.078 251.192 197.4 278.736 159.047 287.262C159.047 287.262 159.686 290.541 169.274 292.508C178.862 294.476 180.78 296.443 184.615 299.722C188.451 303.001 196.121 306.28 201.235 307.592C206.349 308.903 222.968 320.052 225.525 317.429C228.082 314.806 232.556 305.624 232.556 305.624L236.392 259.718Z" fill="#6C63FF"/>
<path d="M356.564 273.49L368.709 280.704C368.709 280.704 384.689 329.233 382.133 341.038C379.576 352.843 377.019 350.875 380.854 358.745C384.689 366.615 388.525 367.27 385.968 374.484C383.411 381.698 384.689 399.405 380.854 406.619C377.019 413.833 358.482 436.786 342.501 398.093C326.521 359.401 356.564 273.49 356.564 273.49Z" fill="#6C63FF"/>
<path d="M379.576 373.828C379.576 373.828 370.627 355.466 368.709 354.154C366.791 352.843 357.842 307.592 357.842 307.592C357.842 307.592 371.905 283.983 359.121 273.49C359.121 273.49 382.772 239.388 375.101 240.043C367.431 240.699 352.09 265.62 352.09 265.62C352.09 265.62 348.574 264.636 349.852 259.39C351.131 254.143 355.925 235.453 352.09 234.797C348.254 234.141 340.584 262.341 340.584 262.341C340.584 262.341 324.923 291.524 329.717 301.69C332.506 307.395 335.711 312.875 339.305 318.085L350.172 399.405C350.172 399.405 371.266 425.637 379.576 373.828Z" fill="#9F616A"/>
<path d="M138.592 180.365C142.475 180.365 145.623 178.897 145.623 177.086C145.623 175.275 142.475 173.807 138.592 173.807C134.709 173.807 131.561 175.275 131.561 177.086C131.561 178.897 134.709 180.365 138.592 180.365Z" fill="#6C63FF"/>
<path d="M95.7646 242.011H86.8156C86.8156 242.011 67 235.453 67 220.369C67 205.286 72.7529 174.463 90.6509 175.118C108.549 175.774 91.9294 216.434 91.9294 216.434L102.764 220.97L102.796 234.797L95.7646 242.011Z" fill="#9F616A"/>
<path d="M292.962 196.432C313.085 196.432 329.397 187.917 329.397 177.414C329.397 166.91 313.085 158.395 292.962 158.395C272.84 158.395 256.527 166.91 256.527 177.414C256.527 187.917 272.84 196.432 292.962 196.432Z" fill="#2F2E41"/>
<path d="M342.182 208.237C343.947 208.237 345.378 205.007 345.378 201.023C345.378 197.039 343.947 193.809 342.182 193.809C340.417 193.809 338.986 197.039 338.986 201.023C338.986 205.007 340.417 208.237 342.182 208.237Z" fill="#9F616A"/>
<path d="M370.532 183.044C377.042 179.8 378.069 168.191 372.826 157.113C367.583 146.036 358.055 139.685 351.545 142.928C345.035 146.172 344.008 157.781 349.251 168.859C354.494 179.936 364.022 186.287 370.532 183.044Z" fill="#2F2E41"/>
</g>
<defs>
<clipPath id="clip0">
<rect width="535" height="444" fill="white" transform="translate(67)"/>
</clipPath>
</defs>
</svg>
